<svg width="24" height="24" viewBox="0 0 24 24" fill="none" xmlns="http://www.w3.org/2000/svg">
<path d="M6.07056 16.459C6.07056 16.459 6.88256 14.822 8.06456 14.822C9.24656 14.822 9.85056 16.197 11.1606 16.197C12.4696 16.197 13.9386 12.749 15.4226 12.749C16.9046 12.749 17.9706 15.14 17.9706 15.14" stroke="#FFB609" stroke-width="1.5" stroke-linecap="round" stroke-linejoin="round"/>
<path fill-rule="evenodd" clip-rule="evenodd" d="M10.1392 9.10491C10.1392 9.96491 9.44217 10.6629 8.58117 10.6629C7.72117 10.6629 7.02417 9.96491 7.02417 9.10491C7.02417 8.24491 7.72117 7.54691 8.58117 7.54691C9.44217 7.54791 10.1392 8.24491 10.1392 9.10491Z" stroke="#FFB609" stroke-width="1.5" stroke-linecap="round" stroke-linejoin="round"/>
<path fill-rule="evenodd" clip-rule="evenodd" d="M2.75024 12.0001C2.75024 18.9371 5.06324 21.2501 12.0002 21.2501C18.9372 21.2501 21.2502 18.9371 21.2502 12.0001C21.2502 5.06309 18.9372 2.75009 12.0002 2.75009C5.06324 2.75009 2.75024 5.06309 2.75024 12.0001Z" stroke="#FFB609" stroke-width="1.5" stroke-linecap="round" stroke-linejoin="round"/>
</svg>
